<svg width="11" height="9" viewBox="0 0 11 9" fill="none" xmlns="http://www.w3.org/2000/svg">
<g clip-path="url(#clip0_6283_73268)">
<path d="M5.49303 8.99483C5.44605 8.9952 5.39962 8.98504 5.35739 8.96517C3.90473 8.26645 2.56995 7.35974 1.39833 6.27581C0.0888881 5.01229 -0.372309 2.99134 0.325817 1.57773C0.577758 1.10263 0.961343 0.704275 1.43391 0.42698C1.90647 0.149686 2.44949 0.00431981 3.00257 0.00705092C3.29338 0.00508976 3.5825 0.0499154 3.85804 0.139686C4.46377 0.359667 5.01915 0.691649 5.49303 1.117C5.96944 0.688796 6.52789 0.354447 7.13706 0.132706C7.41257 0.0428079 7.70171 -0.00202186 7.99254 6.99624e-05C8.54557 -0.0024625 9.08851 0.142986 9.56103 0.420259C10.0336 0.697532 10.4172 1.09577 10.6693 1.57075C11.3674 2.98436 10.9062 5.0053 9.59678 6.26883C8.42604 7.35709 7.09121 8.26795 5.63772 8.9704C5.59227 8.98977 5.5426 8.99816 5.49303 8.99483ZM3.00257 0.617871C2.25742 0.617871 1.31694 0.998325 0.899148 1.83951C0.390927 2.86743 0.609769 4.64579 1.84686 5.843C3.23407 7.17983 5.00109 8.11176 5.50027 8.35085C6.00125 8.10478 7.76827 7.17983 9.15548 5.843C10.3944 4.64579 10.6024 2.87616 10.1032 1.84126C9.6854 0.993089 8.74492 0.619616 7.99977 0.619616C7.77912 0.6178 7.5597 0.651419 7.35048 0.719093C6.74101 0.954198 6.18999 1.31105 5.73358 1.76621C5.67188 1.82557 5.5883 1.85891 5.50117 1.85891C5.41404 1.85891 5.33047 1.82557 5.26876 1.76621C4.81236 1.31105 4.26133 0.954198 3.65186 0.719093C3.44275 0.650826 3.22332 0.616618 3.00257 0.617871Z" fill="url(#paint0_linear_6283_73268)"/>
<path d="M5.49264 8.8778C5.46447 8.87818 5.4366 8.8722 5.41125 8.86035C3.97196 8.16491 2.64948 7.26416 1.48836 6.18844C0.222332 4.9668 -0.237057 2.99996 0.439365 1.62998C0.680067 1.17439 1.04709 0.792215 1.49957 0.525995C1.95205 0.259775 2.47222 0.119963 3.00217 0.122127C3.2788 0.120296 3.55383 0.162758 3.81605 0.247782C4.44183 0.479534 5.01224 0.831633 5.49264 1.28269C5.97622 0.831291 6.54965 0.479227 7.17827 0.247782C7.44049 0.162758 7.71552 0.120296 7.99214 0.122127C8.5224 0.119639 9.04296 0.259298 9.49579 0.525536C9.94861 0.791774 10.3159 1.17413 10.5568 1.62998C11.2332 2.99996 10.7828 4.95982 9.50957 6.18844C8.34705 7.2641 7.0234 8.16482 5.58307 8.86035C5.55485 8.87318 5.5238 8.87917 5.49264 8.8778ZM3.00217 0.490364C2.21724 0.490364 1.22611 0.891761 0.783002 1.78705C0.256695 2.85337 0.477346 4.69455 1.75785 5.92841C3.21559 7.33679 5.08932 8.29665 5.49264 8.48862C5.905 8.28792 7.77873 7.33679 9.23647 5.92841C10.517 4.69455 10.7376 2.85337 10.2095 1.78705C9.76821 0.891761 8.77708 0.490364 7.99214 0.490364C7.7573 0.488384 7.52378 0.524368 7.30125 0.596822C6.39695 0.896996 5.64818 1.66488 5.63913 1.66488C5.60195 1.70006 5.55195 1.71976 5.49987 1.71976C5.4478 1.71976 5.3978 1.70006 5.36061 1.66488C4.88976 1.19768 4.32135 0.832419 3.69307 0.593331C3.47037 0.521934 3.23682 0.487128 3.00217 0.490364Z" fill="#2EBD85"/>
<path d="M5.49295 8.75578C5.48399 8.75743 5.47478 8.75743 5.46582 8.75578C5.44412 8.74531 3.24303 7.72088 1.57006 6.10831C0.340206 4.90762 -0.0992874 3.00884 0.555431 1.68248C0.785258 1.2476 1.13575 0.882866 1.56783 0.628949C1.99991 0.375032 2.49659 0.241914 3.00249 0.244439C3.26508 0.242683 3.52612 0.283386 3.77477 0.364858C4.42112 0.606858 5.00679 0.978656 5.49295 1.45561C5.98157 0.977416 6.57047 0.605524 7.22018 0.364858C7.46883 0.283386 7.72987 0.242683 7.99246 0.244439C8.49831 0.242113 8.99491 0.375314 9.42695 0.629209C9.85899 0.883105 10.2095 1.24773 10.4395 1.68248C11.0942 3.00884 10.6547 4.90762 9.41765 6.10308C7.74468 7.71564 5.54359 8.74008 5.52008 8.75055C5.51159 8.75432 5.5023 8.75611 5.49295 8.75578ZM3.00249 0.366603C2.17776 0.366603 1.136 0.790687 0.669375 1.73484C0.12679 2.83955 0.34925 4.74357 1.66773 6.01582C3.22314 7.51669 5.24336 8.50273 5.50019 8.63362C5.75882 8.50971 7.77904 7.52367 9.33445 6.01582C10.6529 4.74357 10.8772 2.83955 10.3328 1.73484C9.86618 0.790687 8.82442 0.366603 7.99969 0.366603C7.75376 0.366194 7.5094 0.40451 7.27625 0.480041C6.62859 0.727109 6.04243 1.10359 5.55625 1.58475C5.5502 1.59061 5.54302 1.59526 5.5351 1.59843C5.52719 1.6016 5.5187 1.60323 5.51013 1.60323C5.50156 1.60323 5.49308 1.6016 5.48517 1.59843C5.47725 1.59526 5.47006 1.59061 5.46401 1.58475C4.97784 1.10359 4.39168 0.727109 3.74402 0.480041C3.50512 0.402612 3.25449 0.364271 3.00249 0.366603Z" fill="#0095C8"/>
</g>
<defs>
<linearGradient id="paint0_linear_6283_73268" x1="5.49755" y1="8.99592" x2="5.49755" y2="0" gradientUnits="userSpaceOnUse">
<stop stop-color="#2EBD85"/>
<stop offset="1" stop-color="#0095C8"/>
</linearGradient>
<clipPath id="clip0_6283_73268">
<rect width="11" height="9" fill="white"/>
</clipPath>
</defs>
</svg>
