<svg width="21" height="21" viewBox="0 0 21 21" fill="none" xmlns="http://www.w3.org/2000/svg">
<g clip-path="url(#clip0_6526_37953)">
<path d="M7.54133 1.31958C6.30841 1.31958 5.10325 1.68518 4.07812 2.37015C3.05299 3.05512 2.25396 4.0287 1.78214 5.16777C1.31033 6.30683 1.18687 7.56022 1.4274 8.76944C1.66793 9.97867 2.26161 11.0894 3.13342 11.9612C4.00522 12.833 5.11597 13.4267 6.32519 13.6673C7.53441 13.9078 8.78782 13.7843 9.92689 13.3125C11.0659 12.8407 12.0395 12.0417 12.7245 11.0166C13.4094 9.99144 13.7751 8.78622 13.7751 7.5533C13.7735 5.9005 13.1162 4.31585 11.9475 3.14714C10.7788 1.97843 9.19413 1.32116 7.54133 1.31958ZM7.54133 13.1362C6.43714 13.1362 5.35775 12.8088 4.43965 12.1953C3.52154 11.5818 2.80603 10.7099 2.38347 9.68978C1.96091 8.66964 1.85033 7.54711 2.06575 6.46414C2.28117 5.38116 2.81285 4.38639 3.59363 3.60561C4.37441 2.82483 5.36919 2.29311 6.45216 2.07769C7.53513 1.86227 8.65769 1.97284 9.67783 2.39539C10.698 2.81795 11.5699 3.53352 12.1834 4.45162C12.7968 5.36972 13.1243 6.44911 13.1243 7.5533C13.1227 9.03349 12.5339 10.4526 11.4873 11.4993C10.4406 12.5459 9.02152 13.1346 7.54133 13.1362Z" fill="white"/>
<path d="M20.5163 18.1936L16.9338 14.611C16.7824 14.4575 16.602 14.3357 16.4031 14.2527C16.2043 14.1697 15.9909 14.127 15.7753 14.1273C15.6977 14.1273 15.6201 14.1273 15.5484 14.1273L13.5601 12.1449C14.7259 10.6259 15.2702 8.72039 15.0826 6.81483C14.895 4.90928 13.9897 3.14642 12.5501 1.88388C11.1106 0.621326 9.24462 -0.046368 7.33088 0.0162437C5.41714 0.0788554 3.59891 0.867076 2.24496 2.22102C0.89102 3.57496 0.102781 5.39323 0.0401696 7.30697C-0.0224421 9.22072 0.645233 11.0866 1.90778 12.5262C3.17033 13.9657 4.93318 14.8711 6.83874 15.0587C8.7443 15.2462 10.6498 14.7019 12.1688 13.5362L14.1512 15.5245C14.1157 15.7757 14.1393 16.0318 14.2201 16.2723C14.301 16.5128 14.4369 16.7311 14.617 16.9098L18.1996 20.4924C18.5083 20.799 18.9258 20.9712 19.3609 20.9712C19.7961 20.9712 20.2135 20.799 20.5223 20.4924C20.8289 20.1837 21.0011 19.7662 21.0011 19.331C21.0011 18.8959 20.8289 18.4784 20.5223 18.1697M7.54131 14.4557C6.17849 14.4557 4.84629 14.0516 3.71315 13.2944C2.58001 12.5373 1.69686 11.4612 1.17533 10.2021C0.653802 8.94299 0.517319 7.55754 0.783192 6.2209C1.04906 4.88427 1.70537 3.6565 2.66903 2.69284C3.63269 1.72918 4.8604 1.07292 6.19703 0.807044C7.53367 0.541171 8.91918 0.677636 10.1783 1.19916C11.4373 1.72069 12.5135 2.60386 13.2706 3.737C14.0278 4.87014 14.4319 6.20236 14.4319 7.56518C14.4303 9.39218 13.7038 11.1439 12.4119 12.4358C11.12 13.7277 9.36831 14.4541 7.54131 14.4557ZM14.3781 14.8677L12.6406 13.1302C12.7998 12.9829 12.9551 12.8276 13.1063 12.6644L14.8439 14.402C14.6585 14.5238 14.5 14.6823 14.3781 14.8677ZM20.0506 20.0744C19.9598 20.1656 19.8518 20.2379 19.7329 20.2871C19.6141 20.3363 19.4866 20.3614 19.3579 20.361C19.2284 20.3616 19.1 20.3365 18.9801 20.2873C18.8602 20.2381 18.7512 20.1658 18.6593 20.0744L15.0767 16.4918C14.9848 16.4008 14.9119 16.2924 14.8621 16.173C14.8123 16.0536 14.7867 15.9256 14.7867 15.7962C14.7867 15.6668 14.8123 15.5388 14.8621 15.4194C14.9119 15.3 14.9848 15.1916 15.0767 15.1006C15.1664 15.0075 15.274 14.9336 15.393 14.8833C15.5121 14.833 15.6401 14.8074 15.7694 14.808C15.8995 14.8073 16.0285 14.8328 16.1485 14.8831C16.2686 14.9334 16.3772 15.0073 16.468 15.1006L20.0506 18.6832C20.2347 18.8679 20.3381 19.118 20.3381 19.3788C20.3381 19.6396 20.2347 19.8897 20.0506 20.0744Z" fill="white"/>
</g>
<defs>
<clipPath id="clip0_6526_37953">
<rect width="21" height="21" fill="white"/>
</clipPath>
</defs>
</svg>
