<svg width="42" height="42" viewBox="0 0 42 42" fill="none" xmlns="http://www.w3.org/2000/svg">
<circle cx="21" cy="21" r="21" fill="#D9D9D9"/>
<g clip-path="url(#clip0_6283_73284)">
<path d="M26.4158 20.7488H25.2277L21.4851 25.6373L17.7723 20.7488H16.5842C15.1032 20.7488 13.6829 21.3285 12.6356 22.3605C11.5884 23.3926 11 24.7924 11 26.2519V31.404C11 34.3313 13.4951 35.9998 16.5842 35.9998H26.4158C29.3861 35.9998 32 34.4484 32 31.404V26.2519C32 24.7924 31.4117 23.3926 30.3645 22.3605C29.3173 21.3285 27.8969 20.7488 26.4158 20.7488Z" fill="#3D3D3D"/>
<path d="M15.5148 14.104C15.5148 15.6567 16.1406 17.1457 17.2547 18.2437C18.3688 19.3416 19.8798 19.9585 21.4554 19.9585C23.0309 19.9585 24.5419 19.3416 25.656 18.2437C26.7701 17.1457 27.3959 15.6567 27.3959 14.104C27.9603 14.104 28.5543 13.5478 28.7325 12.6696C28.9107 11.7914 28.5544 10.9132 27.9603 10.7961C27.8063 9.21661 27.0606 7.75036 25.8689 6.68336C24.6772 5.61636 23.1248 5.02515 21.5147 5.02515C19.9046 5.02515 18.3523 5.61636 17.1605 6.68336C15.9688 7.75036 15.2232 9.21661 15.0691 10.7961C14.4454 10.7961 14.1187 11.7329 14.2969 12.6696C14.4751 13.6064 15.0395 14.1332 15.6039 14.104" fill="#3D3D3D"/>
</g>
<defs>
<clipPath id="clip0_6283_73284">
<rect width="21" height="31" fill="white" transform="translate(11 5)"/>
</clipPath>
</defs>
</svg>
